<?xml version="1.0" encoding="UTF-8"?>
<svg viewBox="0 0 270.30444 466.73645" xmlns="http://www.w3.org/2000/svg">
 <defs>
  <filter id="b" x="-.0222" y="-.1064" width="1.0444" height="1.2127">
   <feGaussianBlur stdDeviation="1.684"/>
  </filter>
  <linearGradient id="a" x1="314.26" x2="296.51" y1="237.45" y2="181.08" gradientUnits="userSpaceOnUse">
   <stop stop-color="#eb7331" offset="0"/>
   <stop stop-color="#cf4913" offset="1"/>
  </linearGradient>
 </defs>
 <g transform="translate(-399.13 -373.28)">
  <path d="m646.86 497.15c0 7.243-0.6793 114.69-1.9777 121.56-9.9242 52.476-56.017-8.1993-111.38-8.1993-54.511 0-100.04 61.887-110.9 10.612-1.6128-7.6141-2.4612-115.87-2.4612-123.97 0-62.605 50.752-113.36 113.36-113.36s113.36 50.752 113.36 113.36z" fill="#eb7331"/>
  <path transform="matrix(1.6995 0 0 1.6995 -1.3171 72.625)" d="m358.57 237c0 23.078-18.708 41.786-41.786 41.786s-41.786-18.708-41.786-41.786 18.708-41.786 41.786-41.786 41.786 18.708 41.786 41.786z" fill="url(#a)"/>
  <path transform="matrix(1.1688 0 0 1.1688 164.15 193.98)" d="m358.57 237c0 23.078-18.708 41.786-41.786 41.786s-41.786-18.708-41.786-41.786 18.708-41.786 41.786-41.786 41.786 18.708 41.786 41.786z" fill="#fff"/>
  <path transform="matrix(.5531 0 0 .5531 359.19 339.89)" d="m358.57 237c0 23.078-18.708 41.786-41.786 41.786s-41.786-18.708-41.786-41.786 18.708-41.786 41.786-41.786 41.786 18.708 41.786 41.786z" fill="#2e3436"/>
  <path transform="matrix(.17097 0 0 .17097 490 423.36)" d="m358.57 237c0 23.078-18.708 41.786-41.786 41.786s-41.786-18.708-41.786-41.786 18.708-41.786 41.786-41.786 41.786 18.708 41.786 41.786z" fill="#fff"/>
  <path d="m447.93 577.71c14.428 0 26.044 11.616 26.044 26.044v71.237c0 14.428-11.616 26.044-26.044 26.044s-26.044-11.616-26.044-26.044v-71.237c0-14.428 11.616-26.044 26.044-26.044z" fill="#eb7331"/>
  <path d="m506.14 583.07c14.428 0 26.044 11.616 26.044 26.044v123.93c0 14.428-11.616 26.044-26.044 26.044s-26.044-11.616-26.044-26.044v-123.93c0-14.428 11.616-26.044 26.044-26.044z" fill="#eb7331"/>
  <path d="m563.59 584.6c14.428 0 26.044 11.616 26.044 26.044v71.237c0 14.428-11.616 26.044-26.044 26.044s-26.044-11.616-26.044-26.044v-71.237c0-14.428 11.616-26.044 26.044-26.044z" fill="#eb7331"/>
  <path d="m620.27 586.13c14.428 0 26.044 11.616 26.044 26.044v156.55c0 14.428-11.616 26.044-26.044 26.044s-26.044-11.616-26.044-26.044v-156.55c0-14.428 11.616-26.044 26.044-26.044z" fill="#eb7331"/>
  <path transform="matrix(1.422 0 0 -1.2134 824.97 1773.1)" d="m-108 783.36c0 10.493-40.742 19-91 19s-91-8.5066-91-19 40.742-19 91-19 91 8.5066 91 19z" fill="#d3d7cf" filter="url(#b)"/>
  <path d="m467.55 586.53c0.9625 2.7249 1.4688 5.6875 1.4688 8.75v71.219c0 14.428-11.603 26.062-26.031 26.062-7.0876 0-13.501-2.8126-18.188-7.375 3.5901 10.079 13.19 17.25 24.531 17.25 14.428 0 26.062-11.603 26.062-26.031v-71.25c0-7.3248-3.0082-13.902-7.8438-18.625z" fill="#dd5e22"/>
  <path d="m523.87 590.33c2.1174 3.7704 3.3125 8.1323 3.3125 12.781v123.94c0 14.428-11.603 26.031-26.031 26.031-5.9082 0-11.327-1.959-15.688-5.25 4.4573 7.9195 12.917 13.25 22.688 13.25 14.428 0 26.031-11.603 26.031-26.031v-123.94c0-8.5104-4.0365-16.034-10.312-20.781z" fill="#dd5e22"/>
  <path d="m581.55 592.53c0.9625 2.7249 1.4688 5.6875 1.4688 8.75v71.219c0 14.428-11.603 26.062-26.031 26.062-7.0876 0-13.501-2.8126-18.188-7.375 3.5901 10.079 13.19 17.25 24.531 17.25 14.428 0 26.062-11.603 26.062-26.031v-71.25c0-7.3248-3.0082-13.902-7.8438-18.625z" fill="#dd5e22"/>
  <path d="m636.87 600.33c2.1174 3.7704 3.3125 8.1323 3.3125 12.781v145.94c0 14.428-11.603 26.031-26.031 26.031-5.9082 0-11.327-1.959-15.688-5.25 4.4573 7.9195 12.917 13.25 22.688 13.25 14.428 0 26.031-11.603 26.031-26.031v-145.94c0-8.5104-4.0365-16.034-10.312-20.781z" fill="#dd5e22"/>
  <path d="m488.52 590.77c-4.8356 4.7232-7.8438 11.3-7.8438 18.625v17.812l6.375-27.688c0-3.0625 0.5063-6.0251 1.4688-8.75z" fill="#f09868"/>
  <path d="m545.52 592.77c-4.8356 4.7232-7.8438 11.3-7.8438 18.625v17.812l6.375-27.688c0-3.0625 0.5063-6.0251 1.4688-8.75z" fill="#f09868"/>
  <path d="m603.02 599.77c-4.8356 4.7232-7.8438 11.3-7.8438 18.625v17.812l6.375-27.688c0-3.0625 0.5063-6.0251 1.4688-8.75z" fill="#f09868"/>
  <path transform="translate(399.13 373.28)" d="m61.619 164.2a8.0812 7.5761 0 1 1 -16.162 0 8.0812 7.5761 0 1 1 16.162 0z" fill="#d9581e"/>
  <path d="m457.7225,516.1861c-.1622,1.6945-1.4336,2.9947-2.7157,3.984-1.3625,1.0628-2.8848,1.9407-4.515,2.521-.9956.3167-2.0803.5404-3.1178.3196-.9959-.288-1.3898-1.3899-1.4677-2.3275-.1114-1.0695.114-2.1353.0788-3.2068 .007-1.4952.1022-3.1067 1.0434-4.3446 1.5776-2.2822 4.8401-2.9947 7.3341-1.9164 1.9481.8236 3.3826,2.8315 3.3599,4.9708z" fill="#d9581e"/>
  <path transform="translate(399.13 373.28)" d="m61.619 164.2a8.0812 7.5761 0 1 1 -16.162 0 8.0812 7.5761 0 1 1 16.162 0z" fill="#d9581e"/>
  <path d="m463.0479,528.1441c.1069,1.4871.9447,2.6281 1.7895,3.4962 .8978.9327 1.901,1.7031 2.9752,2.2124 .6561.2779 1.3708.4742 2.0545.2804 .6562-.2527.9158-1.2198.9671-2.0426 .0734-.9385-.0751-1.8739-.0519-2.8142-.005-1.3121-.0674-2.7264-.6875-3.8127-1.0396-2.0028-3.1894-2.6281-4.8328-1.6818-1.2837.7228-2.229,2.4848-2.214,4.3623z" fill="#d9581e"/>
  <path transform="matrix(-.82867 0 0 .82867 659.02 449.71)" d="m61.619 164.2a8.0812 7.5761 0 1 1 -16.162 0 8.0812 7.5761 0 1 1 16.162 0z" fill="#d9581e"/>
  <path d="m610.4726,568.1318c.1344,1.4042 1.188,2.4816 2.2504,3.3014 1.1291.8807 2.3906,1.6082 3.7414,2.089 .825.2625 1.7239.4478 2.5836.2648 .8253-.2387 1.1517-1.1518 1.2162-1.9288 .0923-.8862-.0945-1.7695-.0653-2.6573-.006-1.239-.0847-2.5744-.8646-3.6002-1.3073-1.8912-4.0108-2.4816-6.0775-1.5881-1.6144.6825-2.8031,2.3464-2.7843,4.1192z" fill="#d9581e"/>
  <path transform="matrix(-.58118 0 0 .63068 643.77 480.72)" d="m61.619 164.2a8.0812 7.5761 0 1 1 -16.162 0 8.0812 7.5761 0 1 1 16.162 0z" fill="#d9581e"/>
  <path d="m606.0596,578.041c-.0886,1.2323-.7828,2.1778-1.4829,2.8972-.744.7729-1.5753,1.4113-2.4654,1.8333-.5436.2303-1.136.393-1.7025.2324-.5438-.2094-.7589-1.0108-.8014-1.6926-.0608-.7777.0622-1.5528.043-2.332 .004-1.0873.0559-2.2593.5697-3.1595 .8614-1.6597 2.6429-2.1778 4.0048-1.3937 1.0638.5989 1.8471,2.0591 1.8347,3.6149z" fill="#d9581e"/>
  <path transform="matrix(-.36832 0 0 .39969 616.1 489.4)" d="m61.619 164.2a8.0812 7.5761 0 1 1 -16.162 0 8.0812 7.5761 0 1 1 16.162 0z" fill="#d9581e"/>
  <path transform="matrix(-.82867 0 0 .82867 554.02 602.71)" d="m61.619 164.2a8.0812 7.5761 0 1 1 -16.162 0 8.0812 7.5761 0 1 1 16.162 0z" fill="#d9581e"/>
  <path d="m504.4726,721.1318c.1344,1.4042 1.188,2.4816 2.2504,3.3014 1.1291.8807 2.3906,1.6082 3.7414,2.089 .825.2625 1.7239.4478 2.5836.2648 .8253-.2387 1.1517-1.1518 1.2162-1.9288 .0923-.8862-.0945-1.7695-.0653-2.6573-.006-1.239-.0847-2.5744-.8646-3.6002-1.3073-1.8912-4.0108-2.4816-6.0775-1.5881-1.6144.6825-2.8031,2.3464-2.7843,4.1192z" fill="#d9581e"/>
  <path transform="matrix(-.58118 0 0 .63068 538.77 633.72)" d="m61.619 164.2a8.0812 7.5761 0 1 1 -16.162 0 8.0812 7.5761 0 1 1 16.162 0z" fill="#d9581e"/>
  <path d="m501.0596,731.041c-.0886,1.2323-.7828,2.1778-1.4829,2.8972-.744.7729-1.5753,1.4113-2.4654,1.8333-.5436.2303-1.136.393-1.7025.2324-.5438-.2094-.7589-1.0108-.8014-1.6926-.0608-.7777.0622-1.5528.043-2.332 .004-1.0873.0559-2.2593.5697-3.1595 .8614-1.6597 2.6429-2.1778 4.0048-1.3937 1.0638.5989 1.8471,2.0591 1.8347,3.6149z" fill="#d9581e"/>
  <path transform="matrix(-.36832 0 0 .39969 511.1 653.4)" d="m61.619 164.2a8.0812 7.5761 0 1 1 -16.162 0 8.0812 7.5761 0 1 1 16.162 0z" fill="#d9581e"/>
  <path d="m610.9727,751.9111c.1892,1.3358 1.672,2.3606 3.1673,3.1404 1.5891.8377 3.3645,1.5298 5.2658,1.9872 1.1612.2497 2.4262.426 3.6363.2519 1.1615-.227 1.6209-1.0956 1.7117-1.8347 .1299-.843-.133-1.6832-.0919-2.5278-.008-1.1786-.1192-2.4489-1.2169-3.4247-1.8399-1.799-5.6449-2.3606-8.5536-1.5107-2.2721.6492-3.9451,2.232-3.9186,3.9184z" fill="#d9581e"/>
  <path transform="matrix(-.58118 0 0 .63068 637.27 644.22)" d="m61.619 164.2a8.0812 7.5761 0 1 1 -16.162 0 8.0812 7.5761 0 1 1 16.162 0z" fill="#d9581e"/>
  <path d="m610.5596,760.541c-.0886,1.2323-.7828,2.1778-1.4829,2.8972-.744.7729-1.5753,1.4113-2.4654,1.8333-.5436.2303-1.136.393-1.7025.2324-.5438-.2094-.7589-1.0108-.8014-1.6926-.0608-.7777.0622-1.5528.043-2.332 .004-1.0873.0559-2.2593.5697-3.1595 .8614-1.6597 2.6429-2.1778 4.0048-1.3937 1.0638.5989 1.8471,2.0591 1.8347,3.6149z" fill="#d9581e"/>
  <path transform="matrix(1.3807 0 0 .56306 412.83 314.33)" d="m61.619 164.2a8.0812 7.5761 0 1 1 -16.162 0 8.0812 7.5761 0 1 1 16.162 0z" fill="#d9581e"/>
  <path d="m493.7224,394.7987c-.2239.9541-1.9795,1.6862-3.7498,2.2432-1.8813.5984-3.9832,1.0928-6.234,1.4195-1.3747.1783-2.8724.3043-4.3049.1799-1.3751-.1621-1.9189-.7826-2.0265-1.3105-.1538-.6022.1575-1.2023.1088-1.8056 .01-.8418.1411-1.7493 1.4407-2.4463 2.1782-1.285 6.6829-1.6862 10.1265-1.0791 2.6899.4637 4.6706,1.5943 4.6392,2.7989z" fill="#d9581e"/>
  <path transform="matrix(1.3807 0 0 .56306 412.83 314.33)" d="m61.619 164.2a8.0812 7.5761 0 1 1 -16.162 0 8.0812 7.5761 0 1 1 16.162 0z" fill="#d9581e"/>
  <path d="m501.0754,401.5317c.1475.8373 1.3044,1.4798 2.4709,1.9686 1.2397.5251 2.6248.959 4.1079,1.2457 .9059.1565 1.8927.267 2.8367.1579 .9061-.1423 1.2645-.6868 1.3353-1.1501 .1014-.5284-.1037-1.0551-.0717-1.5845-.007-.7388-.0931-1.5351-.9493-2.1468-1.4353-1.1277-4.4037-1.4797-6.6729-.947-1.7725.407-3.0777,1.3991-3.057,2.4562z" fill="#d9581e"/>
 </g>
</svg>
