<?xml version="1.0" encoding="UTF-8"?>
<svg viewBox="0 0 242.30446 302.4704" xmlns="http://www.w3.org/2000/svg">
 <defs>
  <filter id="c" x="-.0222" y="-.1064" width="1.0444" height="1.2127">
   <feGaussianBlur stdDeviation="1.684"/>
  </filter>
  <linearGradient id="a" x2="0" y1="646.9" y2="588.51" gradientUnits="userSpaceOnUse">
   <stop stop-color="#2e3436" offset="0"/>
   <stop stop-color="#d8571d" offset="1"/>
  </linearGradient>
  <linearGradient id="b" x1="314.26" x2="296.51" y1="237.45" y2="181.08" gradientUnits="userSpaceOnUse">
   <stop stop-color="#eb7331" offset="0"/>
   <stop stop-color="#cf4913" offset="1"/>
  </linearGradient>
 </defs>
 <g transform="translate(-478.85 -441.13)">
  <path d="m700.29 554.36c0 7.2352-0.6254 114.57-1.8207 121.43-9.1363 52.42-51.57-8.1905-102.54-8.1905-50.183 0-92.093 61.821-102.09 10.6-1.4847-7.6059-2.2658-115.75-2.2658-123.84 0-62.538 46.722-113.23 104.36-113.23s104.36 50.697 104.36 113.23z" fill="#eb7331"/>
  <path transform="matrix(1.3547 0 0 1.3547 171.62 194.1)" d="m358.57 237c0 23.078-18.708 41.786-41.786 41.786s-41.786-18.708-41.786-41.786 18.708-41.786 41.786-41.786 41.786 18.708 41.786 41.786z" fill="url(#b)"/>
  <path transform="matrix(.93162 0 0 .93162 303.52 290.83)" d="m358.57 237c0 23.078-18.708 41.786-41.786 41.786s-41.786-18.708-41.786-41.786 18.708-41.786 41.786-41.786 41.786 18.708 41.786 41.786z" fill="#fff"/>
  <path transform="matrix(.44088 0 0 .44088 458.98 407.14)" d="m358.57 237c0 23.078-18.708 41.786-41.786 41.786s-41.786-18.708-41.786-41.786 18.708-41.786 41.786-41.786 41.786 18.708 41.786 41.786z" fill="#2e3436"/>
  <path transform="matrix(.13628 0 0 .13628 563.25 473.67)" d="m358.57 237c0 23.078-18.708 41.786-41.786 41.786s-41.786-18.708-41.786-41.786 18.708-41.786 41.786-41.786 41.786 18.708 41.786 41.786z" fill="#fff"/>
  <path d="m672 601.57v9.9792c0 3.3298-14.272 6.0104-32 6.0104h-89c-17.728 0-32-2.6806-32-6.0104v-9.9792c29.769-1.1063 128.38-28.819 153 0z" fill="url(#a)"/>
  <path d="m556.4688,596.3184c-7.6359,1.2697-14.7067,2.438-20.9375,3.375-.0172.2267-.0312.4551-.0312.6875v20.3438c0,4.0554 2.6702,7.3438 6,7.3438h10c3.3298,0 6-3.2883 6-7.3438v-20.3438c0-1.5103-.3926-2.8993-1.0313-4.0625z" fill="#fff"/>
  <path d="m592.25 604.88c-14.774 0-26.989 5.5123-28.969 12.688h57.938c-1.9799-7.1752-14.195-12.688-28.969-12.688z" fill="#2e3436"/>
  <path d="m626.1875,588.5059c-1.912.007-3.8525.0299-5.8125.0937-.024.2671-.0312.5374-.0312.8125v20.375c0,4.0554 2.7015,7.3125 6.0313,7.3125h9.9688c3.3298,0 6-3.2571 6-7.3125v-20.375c0-.0316.0003-.0622 0-.0937-5.0668-.5746-10.4966-.834-16.1563-.8125z" fill="#fff"/>
  <path transform="matrix(1.2747 0 0 1 853.67 -62.807)" d="m-108 783.36c0 10.493-40.742 19-91 19s-91-8.5066-91-19 40.742-19 91-19 91 8.5066 91 19z" fill="#d3d7cf" filter="url(#c)"/>
  <path transform="translate(480.97 446.43)" d="m46.669 27.052a6.0104 6.0104 0 1 1 -12.021 0 6.0104 6.0104 0 1 1 12.021 0z" fill="#eb7331"/>
  <path transform="translate(471.78 462.34)" d="m46.669 27.052a6.0104 6.0104 0 1 1 -12.021 0 6.0104 6.0104 0 1 1 12.021 0z" fill="#eb7331"/>
  <path d="m528.8017,479.9762c.1476.5214.25,1.0563.25,1.625 0,3.3195-2.6805,6.0313-6,6.0313-1.5321,0-2.9385-.5876-4-1.5313 .7211,2.511 3.0072,4.3438 5.75,4.3438 3.3195,0 6.0313-2.6805 6.0313-6 0-1.7843-.7965-3.368-2.0313-4.4688z" fill="#d9581e"/>
  <path d="m518.459,495.8861c.1027.3629.174.7353.174,1.1311 0,2.3105-1.8658,4.1981-4.1763,4.1981-1.0664,0-2.0453-.409-2.7842-1.0658 .5019,1.7478 2.0931,3.0235 4.0023,3.0235 2.3105,0 4.1981-1.8658 4.1981-4.1763 0-1.242-.5544-2.3443-1.4139-3.1105z" fill="#d9581e"/>
  <path transform="matrix(-1 0 0 1 706.55 439.71)" d="m46.669 27.052a6.0104 6.0104 0 1 1 -12.021 0 6.0104 6.0104 0 1 1 12.021 0z" fill="#eb7331"/>
  <path transform="matrix(-1 0 0 1 715.74 455.62)" d="m46.669 27.052a6.0104 6.0104 0 1 1 -12.021 0 6.0104 6.0104 0 1 1 12.021 0z" fill="#eb7331"/>
  <path d="m658.6066,475.7336c-.1653.5214-.28,1.0563-.28,1.625 0,3.3195 3.0023,6.0313 6.7202,6.0313 1.716,0 3.2912-.5876 4.4802-1.5313-.8076,2.511-3.3682,4.3438-6.4402,4.3438-3.7179,0-6.7552-2.6805-6.7552-6 0-1.7843.8921-3.368 2.2751-4.4688z" fill="#d9581e"/>
  <path d="m671.534,486.6937c-.1027.3629-.174.7353-.174,1.1311 0,2.3105 1.8658,4.1981 4.1763,4.1981 1.0664,0 2.0453-.409 2.7842-1.0658-.5019,1.7478-2.0931,3.0235-4.0023,3.0235-2.3105,0-4.1981-1.8658-4.1981-4.1763 0-1.242.5544-2.3443 1.4139-3.1105z" fill="#d9581e"/>
  <path transform="matrix(-1 0 0 1 724.93 469.76)" d="m46.669 27.052a6.0104 6.0104 0 1 1 -12.021 0 6.0104 6.0104 0 1 1 12.021 0z" fill="#eb7331"/>
  <path d="m676.7476,503.6643c-.1476.5214-.25,1.0563-.25,1.625 0,3.3195 2.6805,6.0313 6,6.0313 1.5321,0 2.9385-.5876 4-1.5313-.7211,2.511-3.0072,4.3438-5.75,4.3438-3.3195,0-6.0313-2.6805-6.0313-6 0-1.7843.7965-3.368 2.0313-4.4688z" fill="#d9581e"/>
 </g>
</svg>
