<svg id="meteorite_x5F_3" enable-background="new 0 0 300 300" height="512" viewBox="0 0 300 300" width="512" xmlns="http://www.w3.org/2000/svg"><circle cx="178" cy="158" fill="#edebdc" r="90"/><g fill="#4c241d"><path d="m48.914 61.109c-1.023 0-2.047-.391-2.828-1.172-1.562-1.562-1.562-4.094 0-5.656l14.172-14.176c1.562-1.562 4.094-1.562 5.656 0s1.562 4.094 0 5.656l-14.172 14.177c-.781.781-1.804 1.171-2.828 1.171z"/><path d="m63.086 61.109c-1.023 0-2.047-.391-2.828-1.172l-14.172-14.175c-1.562-1.562-1.562-4.094 0-5.656s4.094-1.562 5.656 0l14.172 14.176c1.562 1.562 1.562 4.094 0 5.656-.781.781-1.805 1.171-2.828 1.171z"/><circle cx="36" cy="76" r="4"/><circle cx="112" cy="36" r="4"/><path d="m212.914 265.109c-1.023 0-2.047-.391-2.828-1.172-1.562-1.562-1.562-4.094 0-5.656l14.172-14.176c1.562-1.562 4.094-1.562 5.656 0s1.562 4.094 0 5.656l-14.172 14.176c-.781.782-1.804 1.172-2.828 1.172z"/><path d="m227.086 265.109c-1.023 0-2.047-.391-2.828-1.172l-14.172-14.176c-1.562-1.562-1.562-4.094 0-5.656s4.094-1.562 5.656 0l14.172 14.176c1.562 1.562 1.562 4.094 0 5.656-.781.782-1.805 1.172-2.828 1.172z"/><circle cx="260" cy="256" r="4"/><circle cx="240" cy="64" r="4"/><circle cx="40" cy="260" r="4"/><circle cx="40" cy="204" r="4"/><circle cx="96" cy="264" r="4"/><circle cx="244" cy="196" r="4"/></g><path d="m207.811 177.294c0-13.37 9.438-24.518 22.009-27.194-1.281-23.312-11.467-44.212-27.293-59.353-2.377 1.897-5.35 3.077-8.628 3.077-7.683 0-13.912-6.229-13.912-13.912 0-1.57.318-3.053.797-4.461-11.975-5.995-25.445-9.451-39.749-9.451-40.108 0-74.002 26.527-85.143 62.988 4.294 2.368 7.237 6.885 7.237 12.135 0 6.725-4.773 12.335-11.115 13.63 0 .095-.014.187-.014.282 0 34.867 20.09 64.971 49.283 79.583 2.817-8.555 10.778-14.771 20.276-14.771 11.841 0 21.44 9.599 21.44 21.44 0 .924-.158 1.804-.272 2.697 32.456-.611 60.625-18.558 75.679-44.999-6.407-5.097-10.595-12.867-10.595-21.691z" fill="#b5a19c"/><path d="m142.727 247.984c-1.133 0-2.219-.48-2.977-1.328-.777-.863-1.137-2.023-.992-3.176l.09-.648c.07-.508.152-1.016.152-1.543 0-9.617-7.824-17.441-17.441-17.441-7.488 0-14.109 4.832-16.477 12.02-.363 1.105-1.189 1.996-2.262 2.441-1.072.453-2.287.406-3.328-.113-31.762-15.895-51.492-47.762-51.492-83.161 0-.098.01-.336.018-.43.131-1.789 1.439-3.41 3.195-3.77 4.586-.938 7.916-5.023 7.916-9.711 0-3.566-1.98-6.875-5.168-8.633-1.656-.914-2.447-2.863-1.895-4.672 12.03-39.37 47.784-65.819 88.969-65.819 14.473 0 28.445 3.32 41.539 9.871 1.789.895 2.641 2.977 1.996 4.867-.391 1.152-.582 2.191-.582 3.172 0 5.465 4.445 9.914 9.91 9.914 2.785 0 4.875-1.199 6.133-2.203 1.57-1.254 3.816-1.145 5.262.234 17.094 16.355 27.223 38.383 28.52 62.027.109 1.969-1.23 3.723-3.16 4.133-10.918 2.32-18.84 12.113-18.84 23.277 0 7.203 3.312 13.969 9.086 18.562 1.543 1.227 1.961 3.395.984 5.109-16.164 28.391-46.469 46.406-79.082 47.02-.024.001-.051.001-.074.001zm-21.168-32.136c13.527 0 24.621 10.609 25.398 23.945 27.082-1.906 51.953-16.887 66.324-40.016-6.055-5.973-9.469-13.992-9.469-22.484 0-13.73 8.973-25.91 21.777-30.18-1.789-19.348-10.074-37.34-23.602-51.266-2.504 1.301-5.25 1.977-8.09 1.977-9.875 0-17.91-8.035-17.91-17.914 0-.746.051-1.492.156-2.246-11.139-5.086-22.932-7.664-35.108-7.664-36.668 0-68.625 22.938-80.418 57.383 4.08 3.367 6.512 8.387 6.512 13.742 0 7.332-4.508 13.844-11.096 16.566.871 29.805 17.201 56.688 43.314 71.371 4.401-8.058 12.839-13.214 22.212-13.214z" fill="#4c241d"/><circle cx="168.859" cy="132.776" fill="#6b4f5b" r="11.129"/><path d="m168.859 147.906c-8.344 0-15.129-6.785-15.129-15.129s6.785-15.129 15.129-15.129 15.129 6.785 15.129 15.129-6.785 15.129-15.129 15.129zm0-22.258c-3.93 0-7.129 3.199-7.129 7.129s3.199 7.129 7.129 7.129 7.129-3.199 7.129-7.129-3.199-7.129-7.129-7.129z" fill="#4c241d"/><circle cx="129.906" cy="82.694" fill="#6b4f5b" r="11.129"/><path d="m129.906 97.824c-8.344 0-15.131-6.785-15.131-15.129s6.787-15.129 15.131-15.129 15.129 6.785 15.129 15.129-6.785 15.129-15.129 15.129zm0-22.258c-3.932 0-7.131 3.199-7.131 7.129s3.199 7.129 7.131 7.129c3.93 0 7.129-3.199 7.129-7.129s-3.199-7.129-7.129-7.129z" fill="#4c241d"/><circle cx="113.212" cy="193.988" fill="#6b4f5b" r="8.127"/><path d="m113.211 206.113c-6.686 0-12.125-5.438-12.125-12.125s5.439-12.125 12.125-12.125c6.688 0 12.127 5.438 12.127 12.125s-5.44 12.125-12.127 12.125zm0-16.25c-2.275 0-4.125 1.852-4.125 4.125s1.85 4.125 4.125 4.125 4.127-1.852 4.127-4.125-1.852-4.125-4.127-4.125z" fill="#4c241d"/><circle cx="96.518" cy="143.906" fill="#6b4f5b" r="22.259"/><path d="m96.518 170.164c-14.48 0-26.26-11.777-26.26-26.258s11.779-26.258 26.26-26.258c14.479 0 26.258 11.777 26.258 26.258s-11.78 26.258-26.258 26.258zm0-44.516c-10.068 0-18.26 8.191-18.26 18.258s8.191 18.258 18.26 18.258 18.258-8.191 18.258-18.258-8.19-18.258-18.258-18.258z" fill="#4c241d"/><circle cx="174.423" cy="193.988" fill="#6b4f5b" r="22.259"/><path d="m174.422 220.246c-14.48 0-26.258-11.777-26.258-26.258s11.777-26.258 26.258-26.258 26.262 11.777 26.262 26.258-11.782 26.258-26.262 26.258zm0-44.516c-10.066 0-18.258 8.191-18.258 18.258s8.191 18.258 18.258 18.258c10.07 0 18.262-8.191 18.262-18.258s-8.192-18.258-18.262-18.258z" fill="#4c241d"/></svg>