<?xml version="1.0" encoding="UTF-8"?>
<!DOCTYPE svg  PUBLIC '-//W3C//DTD SVG 1.1//EN'  'http://www.w3.org/Graphics/SVG/1.1/DTD/svg11.dtd'>
<svg width="210mm" height="297mm" clip-rule="evenodd" fill-rule="evenodd" image-rendering="optimizeQuality" shape-rendering="geometricPrecision" text-rendering="geometricPrecision" version="1.1" viewBox="0 0 21000 29700" xml:space="preserve" xmlns="http://www.w3.org/2000/svg">
 <defs>
  <style type="text/css">
   <![CDATA[
    .fil9 {fill:#B01800}
    .fil4 {fill:#D81000}
    .fil2 {fill:#E83000}
    .fil0 {fill:#F76000}
    .fil8 {fill:#FE9018}
    .fil6 {fill:#FEA828}
    .fil1 {fill:#FF7800}
    .fil10 {fill:#FFD078}
    .fil5 {fill:#FFD840}
    .fil3 {fill:#FFE858}
    .fil7 {fill:#FFF8B0}
   ]]>
  </style>
 </defs>
   <path class="fil0" d="m8498 15111c37-526 82-661 37-1233l-148-75c28-253 26-154 133-85 160 101-11 156 205 140 45-229 44 4 25-295 122 406 150 413 117 1161 89-192 48 113 121-374 54-359-12-1022-27-1416 34 208 12-15 115 162l56 123c122-151-12 84 54-273l12-224c246-2 139-214 346-450 49 606 15 1135-36 1636l-43-600c-32-206 54-150-100-227-149 623 101 1005-55 1523l-29-322c-11 425 5 159-33 355-4 20-11 45-15 63l-247 457c-482 495-196 206-404 537-67-358-42-722-70-499-2 18-8-59-14-85z"/>
   <path class="fil1" d="m8194 11889c68 90 72 121 133 261l37 84c4 9 14 23 17 31 51 115 1-295 60 207 226-564 47-303 135-278 120 34 2 48 35-6l48 785c28 290 48 388 91 590 20 299 21 66-25 295-215 16-44-39-205-140-108-68-106-167-133 85-150 642 253 1649-35 1974 79-915-147-983-234-1795-64-598-39-1656 76-2093z"/>
   <path class="fil2" d="m8522 16635c-28-120-21-36-40-262-17-198-17-230-17-438 0-253 21-615 34-824 6 26 12 103 14 85 28-223 3 141 70 499 208-330-78-41 404-537l247-457c5-18 12-43 15-63 38-196 22 70 33-355l29 322c-14 548-215 1183-309 1759-66 56-90-285-42 242-68 410 2 60-72 239l-62-215c-17-158-20-214-26-478-148 196-126-301-185 461-88-123-47-339-92 23z"/>
   <path class="fil0" d="m8959 16606c-48-527-23-186 42-242 52-85 25-11 78-200 86-304 38-315 214-796-33 496-141 991-143 1491-4 710 141 698 57 1470-45-635 28-428-127-436-68 618 231 1194 13 2262-12-1355-60-754-163-1659-90-797 25-1248 29-1890z"/>
   <path class="fil3" d="m8637 11841l-183 122c9-1055-15-59-64-708l106-224c43 402-5 66 57 268 189-375 438-162 644 72v117l15 539c-104 0-210 8-313 7-195-2-142 41-263-194z"/>
   <path class="fil4" d="m8522 16635c45-361 4-145 92-23 59-762 37-265 185-461 7 264 9 320 26 478l62 215-64 1410c-115-193-108-264-191-641-82-372-118-504-110-978z"/>
   <path class="fil5" d="m8611 12187l26-346c121 235 67 191 263 194 104 1 209-7 313-7l-15-539 58 76c18 497-16 729-58 1157l-12 224c-146 89-42-120-134-570l-119 65-30 562c-6-12-15-31-18-37l-107-121c-94-9-59-1-120 127l-48-785z"/>
   <path class="fil6" d="m8194 11889c50-516 297-1289 403-1382 107-94 246-159 407-58 174 108 172 212 297 529-63-59-89-90-147-175-226-276-499-481-657 230l-106 224c49 649 73-346 64 708l183-122-26 346c-33 54 84 40-35 6-89-25 91-286-135 278-58-502-9-91-60-207-4-8-13-22-17-31l-37-84c-61-140-65-171-133-261z"/>
   <path class="fil7" d="m8497 11032c158-712 431-506 657-230l44 570c-206-235-455-448-644-72-61-202-14 134-57-268z"/>
   <path class="fil6" d="m8749 13562c-42-203-63-300-91-590 61-128 26-136 120-127l107 121c3 5 12 25 18 37l58-69c16 394 81 1057 27 1416-73 486-33 182-121 374 33-748 5-755-117-1161z"/>
   <path class="fil8" d="m9256 11564c61 98 85 144 150 233l-34-520 172 995c-207 236-100 448-346 450 42-428 76-661 58-1157z"/>
   <path class="fil9" d="m8823 19442l84 395 109 5c-13 666 5 754 68 1305-75-125-63-89-132-304-139-435-163-780-129-1401z"/>
   <path class="fil2" d="m8823 19442l-45-1057c144 238 231 703 238 1457l-109-5-84-395z"/>
   <path class="fil10" d="m9256 11564l-58-76v-117l-44-570c58 85 84 116 147 175l63 111c62 0 39-28 9 189l34 520c-66-89-90-135-150-233z"/>
   <path class="fil8" d="m8961 12934l-58 69 30-562 119-65c91 450-12 659 134 570-66 357 68 122-54 273l-56-123c-103-177-82 46-115-162z"/>
   <path class="fil0" d="m10191 10903c37-526 82-661 37-1233l-148-75c28-253 26-154 133-85 160 102-11 156 205 140 45-229 44 4 25-295 122 406 150 413 117 1161 89-192 48 113 121-374 54-359-12-1022-27-1416 34 208 12-15 115 162l56 123c122-151-12 84 54-273l12-224c246-2 139-214 346-450 49 606 15 1135-36 1636l-43-600c-32-206 54-150-100-227-149 623 101 1005-55 1523l-29-322c-11 425 5 159-33 355-4 20-11 45-15 63l-247 457c-482 495-196 206-404 537-67-358-42-722-70-499-2 18-8-59-14-85z"/>
   <path class="fil1" d="m9887 7680c68 90 72 121 133 261l37 84c4 9 14 23 17 31 51 115 1-295 60 207 226-564 47-303 135-278 119 34 2 48 35-6l48 785c28 290 48 388 91 590 20 299 21 66-25 295-215 16-44-39-205-140-108-68-106-167-133 85-150 642 253 1649-35 1974 79-915-147-983-234-1795-64-598-39-1656 76-2093z"/>
   <path class="fil2" d="m10215 12427c-28-120-21-36-40-262-17-198-17-230-17-438 0-253 21-615 34-824 6 26 12 103 14 85 28-223 3 141 70 499 208-330-78-41 404-537l247-457c5-18 12-43 15-63 38-196 22 70 33-355l29 322c-14 548-215 1183-309 1759-66 56-90-285-42 242-68 410 2 60-72 239l-62-215c-17-158-20-214-26-478-148 196-126-301-185 461-88-123-47-339-92 23z"/>
   <path class="fil0" d="m10651 12397c-48-526-23-186 42-242 52-85 25-11 78-200 86-304 38-315 214-796-33 496-141 991-143 1491-4 710 141 698 57 1470-45-635 28-428-127-436-68 618 231 1194 13 2262-12-1355-60-754-163-1659-90-797 25-1248 29-1890z"/>
   <path class="fil3" d="m10330 7633l-183 122c9-1054-15-59-64-708l106-224c43 402-5 66 57 268 189-375 438-162 644 72v117l15 539c-104 0-210 8-313 7-195-2-142 41-263-194z"/>
   <path class="fil4" d="m10215 12427c45-361 4-145 92-23 59-762 37-265 185-461 7 264 9 320 26 478l62 215-64 1410c-115-193-108-264-191-641-82-372-118-504-110-978z"/>
   <path class="fil5" d="m10303 7979l26-346c121 235 67 191 263 194 104 1 209-7 313-7l-15-539 58 76c18 497-16 729-58 1157l-12 224c-146 89-42-120-134-570l-119 65-30 562c-6-12-15-31-18-37l-107-121c-94-9-59-1-120 127l-48-785z"/>
   <path class="fil6" d="m9887 7680c50-516 297-1289 403-1382 107-94 246-159 407-58 174 108 172 212 297 529-63-59-89-90-147-175-226-276-499-481-657 230l-106 224c49 649 73-346 64 708l183-122-26 346c-33 54 84 40-35 6-89-25 91-286-135 278-58-502-9-91-60-207-4-8-13-22-17-31l-37-84c-61-140-65-171-133-261z"/>
   <path class="fil7" d="m10189 6824c158-712 431-506 657-230l44 570c-206-235-455-448-644-72-61-202-14 134-57-268z"/>
   <path class="fil6" d="m10442 9354c-42-203-63-300-91-590 61-128 26-136 120-127l107 121c3 5 12 25 18 37l58-69c16 394 81 1057 27 1416-73 486-33 182-121 374 33-748 5-755-117-1161z"/>
   <path class="fil8" d="m10948 7356c61 98 85 144 150 233l-34-520 172 995c-207 236-100 448-346 450 42-428 76-661 58-1157z"/>
   <path class="fil9" d="m10516 15234l84 395 109 5c-13 666 5 754 68 1305-75-125-63-89-132-304-139-435-163-780-129-1401z"/>
   <path class="fil2" d="m10516 15234l-45-1057c144 238 231 703 238 1457l-109-5-84-395z"/>
   <path class="fil10" d="m10948 7356l-58-76v-117l-44-570c58 85 84 116 147 175l63 111c62 0 39-28 9 189l34 520c-66-89-90-135-150-233z"/>
   <path class="fil8" d="m10653 8725l-58 69 30-562 119-65c91 450-12 659 134 570-66 357 68 122-54 273l-56-123c-103-177-82 46-115-162z"/>
   <path class="fil0" d="m12052 13219c37-526 82-661 37-1233l-148-75c28-253 26-154 133-85 160 101-11 156 205 140 45-229 44 4 25-295 122 406 150 413 117 1161 89-192 48 113 121-374 54-359-12-1022-27-1416 34 208 12-15 115 162l56 123c122-151-12 84 54-273l12-224c246-2 139-214 346-450 49 606 15 1135-36 1636l-43-600c-32-206 54-150-100-227-149 623 101 1005-55 1523l-29-322c-11 425 5 159-33 355-4 20-11 45-15 63l-247 457c-482 495-196 206-404 537-67-358-42-722-70-499-2 18-8-59-14-85z"/>
   <path class="fil1" d="m11747 9997c68 90 72 121 133 261l37 84c4 9 14 23 17 31 51 115 1-295 60 207 226-564 47-303 135-278 120 34 2 48 35-6l48 785c28 290 48 388 91 590 20 299 21 66-25 295-215 16-44-39-205-140-108-68-106-167-133 85-150 642 253 1649-35 1974 79-915-147-983-234-1795-64-598-39-1656 76-2093z"/>
   <path class="fil2" d="m12076 14743c-28-120-21-36-41-262-17-198-17-230-17-438 0-253 21-615 34-824 6 26 12 103 14 85 28-223 3 141 70 499 208-330-78-41 404-537l247-457c5-18 11-43 15-63 38-196 22 70 33-355l29 322c-14 548-215 1183-309 1759-66 56-90-285-42 242-68 410 2 60-72 239l-62-215c-17-158-20-214-26-478-148 196-126-301-185 461-88-123-47-339-92 23z"/>
   <path class="fil0" d="m12512 14714c-48-526-23-186 42-242 52-85 25-11 78-200 86-304 38-315 214-796-33 496-141 991-143 1491-4 710 141 698 57 1470-45-635 28-428-127-436-68 618 231 1194 13 2262-12-1355-60-754-163-1659-90-797 25-1248 29-1890z"/>
   <path class="fil3" d="m12190 9949l-183 122c9-1054-15-59-64-708l106-224c43 402-5 66 57 268 189-375 438-162 644 72v117l15 539c-104 0-210 8-313 7-195-2-142 41-263-194z"/>
   <path class="fil4" d="m12076 14743c45-361 4-145 92-23 59-762 37-265 185-461 7 264 9 320 26 478l62 215-64 1410c-115-193-108-264-191-641-82-372-118-504-110-978z"/>
   <path class="fil5" d="m12164 10295l26-346c121 235 67 191 263 194 104 1 209-7 313-7l-15-539 58 76c18 497-16 729-58 1157l-12 224c-146 89-42-120-134-570l-119 65-30 562c-6-12-15-31-18-37l-107-121c-94-9-59-1-120 127l-48-785z"/>
   <path class="fil6" d="m11747 9997c50-516 297-1289 403-1382 107-94 246-159 407-58 174 108 172 212 297 529-63-59-89-90-147-175-226-276-499-481-657 230l-106 224c49 649 73-346 64 708l183-122-26 346c-33 54 84 40-35 6-89-25 91-286-135 278-58-502-9-91-60-207-4-8-13-22-17-31l-37-84c-61-140-65-171-133-261z"/>
   <path class="fil7" d="m12050 9140c158-712 431-506 657-230l44 570c-206-235-455-448-644-72-61-202-14 134-57-268z"/>
   <path class="fil6" d="m12303 11670c-42-203-63-300-91-590 61-128 26-136 120-127l107 121c3 5 12 25 18 37l58-69c16 394 81 1057 27 1416-73 486-33 182-121 374 33-748 5-755-117-1161z"/>
   <path class="fil8" d="m12809 9672c61 98 85 144 150 233l-34-520 172 995c-207 236-100 448-346 450 42-428 76-661 58-1157z"/>
   <path class="fil9" d="m12377 17550l84 395 109 5c-13 666 5 755 68 1305-75-125-63-89-132-304-139-435-163-780-129-1401z"/>
   <path class="fil2" d="m12377 17550l-45-1057c144 238 231 703 238 1457l-109-5-84-395z"/>
   <path class="fil10" d="m12809 9672l-58-76v-117l-44-570c58 85 84 116 147 175l63 111c62 0 39-28 9 189l34 520c-66-89-90-135-150-233z"/>
   <path class="fil8" d="m12514 11042l-58 69 30-562 119-65c91 450-12 659 134 570-66 357 68 122-54 273l-56-123c-103-177-82 46-115-162z"/>
</svg>
