<?xml version='1.0' encoding='utf-8'?>
<svg xmlns="http://www.w3.org/2000/svg" viewBox="0 0 777 883.5"><defs><style>.cls-1{fill:#b9b5c9;}.cls-2{fill:#c5c1d6;}.cls-3{fill:#8a8c99;}.cls-4{fill:#9a9cab;}.cls-5{fill:#7e7a9c;}.cls-6{fill:#8984a3;}.cls-7{opacity:0.8;}.cls-8{fill:#c4ffe2;}</style></defs><title>UFO_01</title><g id="Ebene_2" data-name="Ebene 2"><g id="Ebene_2-2" data-name="Ebene 2"><circle class="cls-1" cx="388.5" cy="176" r="176"/><path class="cls-2" d="M556.5,176a167.92,167.92,0,0,1-80.18,143.25c-25.55,15.7-8.82-87-8.82-179.75,0-75.32-137-130-79-131.5C481.25,5.6,556.5,83.22,556.5,176Z"/><ellipse class="cls-3" cx="388.5" cy="273" rx="388.5" ry="153"/><path class="cls-4" d="M777,273c0,34-28.11,65.36-75.68,90.75-70.44,37.59,90.18-63-18.82-146C615.27,166.56,173.94,120,388.5,120S777,188.5,777,273Z"/><path class="cls-5" d="M388.5,140.5c-198.82,0-360,70.37-360,141.14s161.18,133.14,360,133.14,360-63.37,360-134.14S587.32,140.5,388.5,140.5Zm0,267.57c-180.65,0-327.1-57.13-327.1-121.43S207.85,170.21,388.5,170.21s327.1,52.13,327.1,116.43S569.15,408.07,388.5,408.07Z"/><path class="cls-6" d="M388.5,191.75c-160.71,0-291,54.33-291,109s130.29,102.8,291,102.8,291-48.93,291-103.58S549.21,191.75,388.5,191.75Zm0,206.6c-146,0-264.41-44.11-264.41-93.76s118.38-89.9,264.41-89.9,264.41,40.25,264.41,89.9S534.53,398.35,388.5,398.35Z"/><g class="cls-7"><ellipse class="cls-8" cx="388.5" cy="308.95" rx="117.82" ry="68.45"/><ellipse class="cls-8" cx="388.5" cy="771" rx="223.08" ry="112.5"/><polygon class="cls-8" points="611 764.5 166 764.5 271.11 303.95 505.9 303.95 611 764.5"/></g></g></g></svg>